<?xml version="1.0" encoding="utf-8"?>
<svg xmlns="http://www.w3.org/2000/svg" style="margin: auto; background: rgb(255, 251, 243); display: block; shape-rendering: auto;" width="280" height="250" preserveAspectRatio="xMidYMid">
<style type="text/css">
  text {
    text-anchor: middle; font-size: 80px; opacity: 0;
  }
</style>
<g style="transform-origin:140px 125px;transform:scale(1)">
<g transform="translate(140,125)">
  <g transform="translate(0,0)"><g class="path" style="transform: scale(0.91); transform-origin: -92.75px -6.5496px; animation: 1s linear -0.528s infinite normal forwards running breath-72303221-27ef-4f96-8443-04a027d1021e;"><path d="M21.88-21.99L21.88 0L6.37 0L6.37-56.25L21.88-56.25L21.88-29.45L21.88-29.45Q29.06-34.96 35.29-41.68L35.29-41.68L35.29-41.68Q41.52-48.40 46.02-56.29L46.02-56.29L56.60-56.29L56.60-56.29Q52.46-49.22 47.11-43.09L47.11-43.09L47.11-43.09Q41.76-36.95 35.47-31.72L35.47-31.72L57.93 0L41.76 0L24.84-23.91L24.84-23.91Q24.10-23.40 23.38-22.93L23.38-22.93L23.38-22.93Q22.66-22.46 21.88-21.99L21.88-21.99" fill="#51cacc" stroke="none" stroke-width="none" transform="translate(-124.9000244140625,21.595401855468747)" style="fill: rgb(81, 202, 204);"></path></g><g class="path" style="transform: scale(0.91); transform-origin: -44.55px -1.0596px; animation: 1s linear -0.396s infinite normal forwards running breath-72303221-27ef-4f96-8443-04a027d1021e;"><path d="M70.82-21.41L70.82-21.41L70.82-21.41Q73.24-20.86 75.66-20.55L75.66-20.55L75.66-20.55Q78.09-20.23 80.55-20.23L80.55-20.23L80.55-20.23Q83.13-20.23 85.33-20.72L85.33-20.72L85.33-20.72Q87.54-21.21 89.16-22.36L89.16-22.36L89.16-22.36Q90.78-23.52 91.72-25.43L91.72-25.43L91.72-25.43Q92.66-27.34 92.66-30.20L92.66-30.20L92.66-30.20Q92.66-32.50 92.03-34.41L92.03-34.41L92.03-34.41Q91.41-36.33 90.18-37.70L90.18-37.70L90.18-37.70Q88.95-39.06 87.15-39.82L87.15-39.82L87.15-39.82Q85.35-40.59 82.97-40.59L82.97-40.59L82.97-40.59Q80.74-40.59 78.96-39.77L78.96-39.77L78.96-39.77Q77.19-38.95 75.84-37.56L75.84-37.56L75.84-37.56Q74.49-36.17 73.54-34.34L73.54-34.34L73.54-34.34Q72.58-32.50 71.95-30.51L71.95-30.51L71.95-30.51Q71.33-28.52 71.05-26.48L71.05-26.48L71.05-26.48Q70.78-24.45 70.78-22.66L70.78-22.66L70.78-22.66Q70.78-22.34 70.78-22.03L70.78-22.03L70.78-22.03Q70.78-21.72 70.82-21.41zM103.36-30.31L103.36-30.31L103.36-30.31Q103.36-27.54 102.46-25.37L102.46-25.37L102.46-25.37Q101.56-23.20 100.02-21.56L100.02-21.56L100.02-21.56Q98.48-19.92 96.45-18.79L96.45-18.79L96.45-18.79Q94.41-17.66 92.11-16.93L92.11-16.93L92.11-16.93Q89.80-16.21 87.36-15.90L87.36-15.90L87.36-15.90Q84.92-15.59 82.62-15.59L82.62-15.59L82.62-15.59Q79.69-15.59 76.84-16.00L76.84-16.00L76.84-16.00Q73.98-16.41 71.21-17.30L71.21-17.30L71.21-17.30Q71.64-14.73 72.58-12.40L72.58-12.40L72.58-12.40Q73.52-10.08 75.08-8.34L75.08-8.34L75.08-8.34Q76.64-6.60 78.93-5.59L78.93-5.59L78.93-5.59Q81.21-4.57 84.34-4.57L84.34-4.57L84.34-4.57Q86.41-4.57 88.28-5.20L88.28-5.20L88.28-5.20Q90.16-5.82 91.72-6.95L91.72-6.95L91.72-6.95Q93.28-8.09 94.47-9.65L94.47-9.65L94.47-9.65Q95.66-11.21 96.41-13.13L96.41-13.13L102.11-11.02L102.11-11.02Q100.82-7.93 98.57-5.68L98.57-5.68L98.57-5.68Q96.33-3.44 93.50-1.97L93.50-1.97L93.50-1.97Q90.66-0.51 87.48 0.20L87.48 0.20L87.48 0.20Q84.30 0.90 81.17 0.90L81.17 0.90L81.17 0.90Q76.02 0.90 71.64-0.84L71.64-0.84L71.64-0.84Q67.27-2.58 64.10-5.70L64.10-5.70L64.10-5.70Q60.94-8.83 59.14-13.16L59.14-13.16L59.14-13.16Q57.34-17.50 57.34-22.66L57.34-22.66L57.34-22.66Q57.34-27.81 59.14-32.15L59.14-32.15L59.14-32.15Q60.94-36.48 64.10-39.61L64.10-39.61L64.10-39.61Q67.27-42.73 71.64-44.47L71.64-44.47L71.64-44.47Q76.02-46.21 81.17-46.21L81.17-46.21L81.17-46.21Q83.67-46.21 86.29-45.86L86.29-45.86L86.29-45.86Q88.91-45.51 91.37-44.75L91.37-44.75L91.37-44.75Q93.83-43.98 96.02-42.77L96.02-42.77L96.02-42.77Q98.20-41.56 99.82-39.79L99.82-39.79L99.82-39.79Q101.45-38.01 102.40-35.66L102.40-35.66L102.40-35.66Q103.36-33.32 103.36-30.31" fill="#51cacc" stroke="none" stroke-width="none" transform="translate(-124.9000244140625,21.595401855468747)" style="fill: rgb(157, 248, 113);"></path></g><g class="path" style="transform: scale(0.91); transform-origin: 4.68997px -1.0596px; animation: 1s linear -0.264s infinite normal forwards running breath-72303221-27ef-4f96-8443-04a027d1021e;"><path d="M150.43-14.41L150.43-14.41L150.43-14.41Q150.43-11.45 149.57-9.14L149.57-9.14L149.57-9.14Q148.71-6.84 147.23-5.14L147.23-5.14L147.23-5.14Q145.74-3.44 143.71-2.29L143.71-2.29L143.71-2.29Q141.68-1.13 139.36-0.43L139.36-0.43L139.36-0.43Q137.03 0.27 134.49 0.59L134.49 0.59L134.49 0.59Q131.95 0.90 129.45 0.90L129.45 0.90L129.45 0.90Q126.09 0.90 123.52 0.47L123.52 0.47L123.52 0.47Q120.94 0.04 118.59-0.92L118.59-0.92L118.59-0.92Q116.25-1.88 113.93-3.40L113.93-3.40L113.93-3.40Q111.60-4.92 108.75-7.11L108.75-7.11L116.45-13.40L116.45-13.40Q117.50-11.41 119.24-9.79L119.24-9.79L119.24-9.79Q120.98-8.16 122.85-6.99L122.85-6.99L122.85-6.99Q124.73-5.82 126.48-5.20L126.48-5.20L126.48-5.20Q128.24-4.57 129.34-4.57L129.34-4.57L129.34-4.57Q130.23-4.57 131.37-4.63L131.37-4.63L131.37-4.63Q132.50-4.69 133.67-4.86L133.67-4.86L133.67-4.86Q134.84-5.04 135.98-5.39L135.98-5.39L135.98-5.39Q137.11-5.74 137.99-6.35L137.99-6.35L137.99-6.35Q138.87-6.95 139.39-7.87L139.39-7.87L139.39-7.87Q139.92-8.79 139.92-10.08L139.92-10.08L139.92-10.08Q139.92-11.41 139.24-12.40L139.24-12.40L139.24-12.40Q138.55-13.40 137.46-14.14L137.46-14.14L137.46-14.14Q136.37-14.88 134.96-15.39L134.96-15.39L134.96-15.39Q133.55-15.90 132.13-16.29L132.13-16.29L132.13-16.29Q130.70-16.68 129.38-16.97L129.38-16.97L129.38-16.97Q128.05-17.27 127.07-17.54L127.07-17.54L127.07-17.54Q125.27-18.05 123.28-18.57L123.28-18.57L123.28-18.57Q121.29-19.10 119.34-19.79L119.34-19.79L119.34-19.79Q117.38-20.47 115.61-21.41L115.61-21.41L115.61-21.41Q113.83-22.34 112.48-23.65L112.48-23.65L112.48-23.65Q111.13-24.96 110.33-26.74L110.33-26.74L110.33-26.74Q109.53-28.52 109.53-30.90L109.53-30.90L109.53-30.90Q109.53-35.27 111.27-38.22L111.27-38.22L111.27-38.22Q113.01-41.17 115.86-42.95L115.86-42.95L115.86-42.95Q118.71-44.73 122.34-45.47L122.34-45.47L122.34-45.47Q125.98-46.21 129.73-46.21L129.73-46.21L129.73-46.21Q132.30-46.21 135.16-45.68L135.16-45.68L135.16-45.68Q138.01-45.16 140.70-44.12L140.70-44.12L140.70-44.12Q143.40-43.09 145.74-41.60L145.74-41.60L145.74-41.60Q148.09-40.12 149.65-38.20L149.65-38.20L141.95-31.88L141.95-31.88Q141.09-34.22 139.71-35.90L139.71-35.90L139.71-35.90Q138.32-37.58 136.70-38.65L136.70-38.65L136.70-38.65Q135.08-39.73 133.38-40.23L133.38-40.23L133.38-40.23Q131.68-40.74 130.23-40.74L130.23-40.74L130.23-40.74Q128.83-40.74 127.07-40.63L127.07-40.63L127.07-40.63Q125.31-40.51 123.77-39.96L123.77-39.96L123.77-39.96Q122.23-39.41 121.15-38.30L121.15-38.30L121.15-38.30Q120.08-37.19 120.08-35.23L120.08-35.23L120.08-35.23Q120.08-33.83 120.72-32.83L120.72-32.83L120.72-32.83Q121.37-31.84 122.42-31.11L122.42-31.11L122.42-31.11Q123.48-30.39 124.82-29.90L124.82-29.90L124.82-29.90Q126.17-29.41 127.58-29.04L127.58-29.04L127.58-29.04Q128.98-28.67 130.31-28.40L130.31-28.40L130.31-28.40Q131.64-28.13 132.70-27.81L132.70-27.81L132.70-27.81Q134.49-27.30 136.50-26.78L136.50-26.78L136.50-26.78Q138.52-26.25 140.47-25.57L140.47-25.57L140.47-25.57Q142.42-24.88 144.24-23.96L144.24-23.96L144.24-23.96Q146.05-23.05 147.42-21.72L147.42-21.72L147.42-21.72Q148.79-20.39 149.61-18.61L149.61-18.61L149.61-18.61Q150.43-16.84 150.43-14.41" fill="#51cacc" stroke="none" stroke-width="none" transform="translate(-124.9000244140625,21.595401855468747)" style="fill: rgb(224, 255, 119);"></path></g><g class="path" style="transform: scale(0.91); transform-origin: 55.295px -1.0596px; animation: 1s linear -0.132s infinite normal forwards running breath-72303221-27ef-4f96-8443-04a027d1021e;"><path d="M204.18-45.12L204.18 0L190.98 0L190.98-5.39L190.98-5.39Q188.63-2.19 185.33-0.64L185.33-0.64L185.33-0.64Q182.03 0.90 178.09 0.90L178.09 0.90L178.09 0.90Q172.93 0.90 168.87-0.94L168.87-0.94L168.87-0.94Q164.80-2.77 161.99-5.96L161.99-5.96L161.99-5.96Q159.18-9.14 157.70-13.44L157.70-13.44L157.70-13.44Q156.21-17.73 156.21-22.66L156.21-22.66L156.21-22.66Q156.21-27.58 157.70-31.88L157.70-31.88L157.70-31.88Q159.18-36.17 161.99-39.36L161.99-39.36L161.99-39.36Q164.80-42.54 168.87-44.38L168.87-44.38L168.87-44.38Q172.93-46.21 178.09-46.21L178.09-46.21L178.09-46.21Q180.70-46.21 183.07-45.43L183.07-45.43L183.07-45.43Q185.43-44.65 187.40-43.22L187.40-43.22L187.40-43.22Q189.38-41.80 190.88-39.79L190.88-39.79L190.88-39.79Q192.38-37.77 193.24-35.31L193.24-35.31L199.10-45.12L204.18-45.12zM190.90-22.66L190.90-22.66L190.90-22.66Q190.90-24.41 190.72-26.37L190.72-26.37L190.72-26.37Q190.55-28.32 190.12-30.23L190.12-30.23L190.12-30.23Q189.69-32.15 188.93-33.89L188.93-33.89L188.93-33.89Q188.16-35.63 186.97-36.97L186.97-36.97L186.97-36.97Q185.78-38.32 184.10-39.10L184.10-39.10L184.10-39.10Q182.42-39.88 180.20-39.88L180.20-39.88L180.20-39.88Q177.97-39.88 176.33-39.08L176.33-39.08L176.33-39.08Q174.69-38.28 173.52-36.93L173.52-36.93L173.52-36.93Q172.34-35.59 171.58-33.83L171.58-33.83L171.58-33.83Q170.82-32.07 170.39-30.16L170.39-30.16L170.39-30.16Q169.96-28.24 169.79-26.31L169.79-26.31L169.79-26.31Q169.61-24.38 169.61-22.66L169.61-22.66L169.61-22.66Q169.61-20.94 169.79-18.98L169.79-18.98L169.79-18.98Q169.96-17.03 170.39-15.12L170.39-15.12L170.39-15.12Q170.82-13.20 171.58-11.45L171.58-11.45L171.58-11.45Q172.34-9.69 173.52-8.34L173.52-8.34L173.52-8.34Q174.69-6.99 176.33-6.19L176.33-6.19L176.33-6.19Q177.97-5.39 180.20-5.39L180.20-5.39L180.20-5.39Q182.23-5.39 183.81-6.23L183.81-6.23L183.81-6.23Q185.39-7.07 186.58-8.48L186.58-8.48L186.58-8.48Q187.77-9.88 188.59-11.68L188.59-11.68L188.59-11.68Q189.41-13.48 189.92-15.39L189.92-15.39L189.92-15.39Q190.43-17.30 190.66-19.20L190.66-19.20L190.66-19.20Q190.90-21.09 190.90-22.66" fill="#51cacc" stroke="none" stroke-width="none" transform="translate(-124.9000244140625,21.595401855468747)" style="fill: rgb(222, 157, 214);"></path></g><g class="path" style="transform: scale(0.91); transform-origin: 108.245px -0.964598px; animation: 1s linear 0s infinite normal forwards running breath-72303221-27ef-4f96-8443-04a027d1021e;"><path d="M256.17-45.12L238.40 0L226.52 0L210.12-45.12L223.32-45.12L235.35-9.18L247.03-45.12L256.17-45.12" fill="#51cacc" stroke="none" stroke-width="none" transform="translate(-124.9000244140625,21.595401855468747)" style="fill: rgb(255, 112, 142);"></path></g></g>
</g>
</g>
<style id="breath-72303221-27ef-4f96-8443-04a027d1021e" data-anikit="">@keyframes breath-72303221-27ef-4f96-8443-04a027d1021e
{
  0% {
    animation-timing-function: cubic-bezier(0.9647,0.2413,-0.0705,0.7911);
    transform: scale(0.9099999999999999);
  }
  51% {
    animation-timing-function: cubic-bezier(0.9226,0.2631,-0.0308,0.7628);
    transform: scale(1.02994);
  }
  100% {
    transform: scale(0.9099999999999999);
  }
}</style></svg>